<svg aria-hidden="true" style="position: absolute; width: 0; height: 0; overflow: hidden;" version="1.1" xmlns="http://www.w3.org/2000/svg" xmlns:xlink="http://www.w3.org/1999/xlink">
<defs>
<symbol id="icon-bag" viewBox="0 0 32 32">
<path fill="none" stroke="#000" style="stroke: var(--color1, #000)" stroke-linejoin="miter" stroke-linecap="round" stroke-miterlimit="10" stroke-width="1.28" d="M5.12 8.96l-2.56 22.4h26.88l-2.56-22.4h-21.76z"></path>
<path fill="none" stroke="#000" style="stroke: var(--color1, #000)" stroke-linejoin="miter" stroke-linecap="round" stroke-miterlimit="10" stroke-width="1.28" d="M21.76 12.16c0-0.794 0-4.326 0-5.12 0-3.181-2.579-5.76-5.76-5.76s-5.76 2.579-5.76 5.76c0 0.794 0 4.326 0 5.12"></path>
<path d="M23.040 12.16c0 0.707-0.573 1.28-1.28 1.28s-1.28-0.573-1.28-1.28c0-0.707 0.573-1.28 1.28-1.28s1.28 0.573 1.28 1.28z"></path>
<path d="M11.52 12.16c0 0.707-0.573 1.28-1.28 1.28s-1.28-0.573-1.28-1.28c0-0.707 0.573-1.28 1.28-1.28s1.28 0.573 1.28 1.28z"></path>
</symbol>
<symbol id="icon-heart" viewBox="0 0 32 32">
<path d="M16.15 30.297c-31.509-17.188-8.721-38.557 0-24.166 8.722-14.392 31.512 6.977 0 24.166z"></path>
</symbol>
<symbol id="icon-menu" viewBox="0 0 32 32">
<path stroke-linejoin="round" stroke-linecap="round" stroke-miterlimit="2.6131" stroke-width="0.8385" d="M1.669 6.603h28.722"></path>
<path stroke-linejoin="round" stroke-linecap="round" stroke-miterlimit="2.6131" stroke-width="0.8385" d="M1.669 16.032h28.722"></path>
<path stroke-linejoin="round" stroke-linecap="round" stroke-miterlimit="2.6131" stroke-width="0.8385" d="M1.669 25.457h28.722"></path>
</symbol>
<symbol id="icon-search" viewBox="0 0 32 32">
<path d="M19.469 24.115c0.078-0.045 0.172-0.072 0.273-0.072 0.153 0 0.291 0.062 0.391 0.161l6.61 6.61c1.327 1.327 3.163 1.633 4.331 0.461l0.202-0.202c1.168-1.168 0.856-3.013-0.465-4.331l-6.637-6.637c-0.096-0.098-0.155-0.233-0.155-0.381 0-0.104 0.029-0.202 0.080-0.285l-0.001 0.002c1.157-1.881 1.843-4.16 1.843-6.598 0-3.55-1.453-6.761-3.796-9.070l-0.002-0.002c-2.349-2.344-5.592-3.794-9.174-3.794-7.173 0-12.988 5.815-12.988 12.988 0 3.591 1.458 6.842 3.814 9.194l0 0c2.311 2.346 5.522 3.799 9.073 3.799 2.44 0 4.719-0.686 6.656-1.876l-0.055 0.032zM6.196 19.765c-1.736-1.736-2.809-4.134-2.809-6.783 0-5.298 4.295-9.594 9.594-9.594s9.594 4.295 9.594 9.594c0 2.649-1.073 5.047-2.809 6.783v0c-1.738 1.733-4.136 2.805-6.785 2.805s-5.047-1.072-6.785-2.805l0 0z"></path>
<path d="M18.935 12.209c0.006 0 0.013 0 0.019 0 0.733 0 1.327-0.594 1.327-1.327 0-0.193-0.041-0.377-0.116-0.543l0.003 0.008c-1.318-3.052-4.302-5.148-7.775-5.148-1.186 0-2.316 0.245-3.34 0.686l0.055-0.021c-0.485 0.209-0.818 0.683-0.818 1.234 0 0.74 0.6 1.341 1.341 1.341 0.189 0 0.368-0.039 0.531-0.109l-0.009 0.003c0.661-0.286 1.43-0.452 2.238-0.452 2.369 0 4.404 1.429 5.29 3.471l0.014 0.037c0.205 0.485 0.677 0.82 1.226 0.82 0.004 0 0.008-0 0.012-0h-0.001z"></path>
</symbol>
<symbol id="icon-facebook" viewBox="0 0 32 32">
<path d="M19 6h5v-6h-5c-3.86 0-7 3.14-7 7v3h-4v6h4v16h6v-16h5l1-6h-6v-3c0-0.542 0.458-1 1-1z"></path>
</symbol>
<symbol id="icon-instagram" viewBox="0 0 32 32">
<path d="M16 2.881c4.275 0 4.781 0.019 6.462 0.094 1.563 0.069 2.406 0.331 2.969 0.55 0.744 0.288 1.281 0.638 1.837 1.194 0.563 0.563 0.906 1.094 1.2 1.838 0.219 0.563 0.481 1.412 0.55 2.969 0.075 1.688 0.094 2.194 0.094 6.463s-0.019 4.781-0.094 6.463c-0.069 1.563-0.331 2.406-0.55 2.969-0.288 0.744-0.637 1.281-1.194 1.837-0.563 0.563-1.094 0.906-1.837 1.2-0.563 0.219-1.413 0.481-2.969 0.55-1.688 0.075-2.194 0.094-6.463 0.094s-4.781-0.019-6.463-0.094c-1.563-0.069-2.406-0.331-2.969-0.55-0.744-0.288-1.281-0.637-1.838-1.194-0.563-0.563-0.906-1.094-1.2-1.837-0.219-0.563-0.481-1.413-0.55-2.969-0.075-1.688-0.094-2.194-0.094-6.463s0.019-4.781 0.094-6.463c0.069-1.563 0.331-2.406 0.55-2.969 0.288-0.744 0.638-1.281 1.194-1.838 0.563-0.563 1.094-0.906 1.838-1.2 0.563-0.219 1.412-0.481 2.969-0.55 1.681-0.075 2.188-0.094 6.463-0.094zM16 0c-4.344 0-4.887 0.019-6.594 0.094-1.7 0.075-2.869 0.35-3.881 0.744-1.056 0.412-1.95 0.956-2.837 1.85-0.894 0.888-1.438 1.781-1.85 2.831-0.394 1.019-0.669 2.181-0.744 3.881-0.075 1.713-0.094 2.256-0.094 6.6s0.019 4.887 0.094 6.594c0.075 1.7 0.35 2.869 0.744 3.881 0.413 1.056 0.956 1.95 1.85 2.837 0.887 0.887 1.781 1.438 2.831 1.844 1.019 0.394 2.181 0.669 3.881 0.744 1.706 0.075 2.25 0.094 6.594 0.094s4.888-0.019 6.594-0.094c1.7-0.075 2.869-0.35 3.881-0.744 1.050-0.406 1.944-0.956 2.831-1.844s1.438-1.781 1.844-2.831c0.394-1.019 0.669-2.181 0.744-3.881 0.075-1.706 0.094-2.25 0.094-6.594s-0.019-4.887-0.094-6.594c-0.075-1.7-0.35-2.869-0.744-3.881-0.394-1.063-0.938-1.956-1.831-2.844-0.887-0.887-1.781-1.438-2.831-1.844-1.019-0.394-2.181-0.669-3.881-0.744-1.712-0.081-2.256-0.1-6.6-0.1v0z"></path>
<path d="M16 7.781c-4.537 0-8.219 3.681-8.219 8.219s3.681 8.219 8.219 8.219 8.219-3.681 8.219-8.219c0-4.537-3.681-8.219-8.219-8.219zM16 21.331c-2.944 0-5.331-2.387-5.331-5.331s2.387-5.331 5.331-5.331c2.944 0 5.331 2.387 5.331 5.331s-2.387 5.331-5.331 5.331z"></path>
<path d="M26.462 7.456c0 1.060-0.859 1.919-1.919 1.919s-1.919-0.859-1.919-1.919c0-1.060 0.859-1.919 1.919-1.919s1.919 0.859 1.919 1.919z"></path>
</symbol>
<symbol id="icon-add" viewBox="0 0 32 32">
<path d="M14.667 2.667v12h-12v2.667h12v12h2.667v-12h12v-2.667h-12v-12z"></path>
</symbol>
</defs>
</svg>
